<svg xmlns="http://www.w3.org/2000/svg" viewBox="0 0 291.18 286.8"><defs><style>.cls-1{fill:#ffe817;}.cls-2{fill:#f7bc00;}</style></defs><title>Asset 2</title><g id="Layer_2" data-name="Layer 2"><g id="Layer_1-2" data-name="Layer 1"><path class="cls-1" d="M289.23,139.85l-24.6-14.3a4.05,4.05,0,0,1-1.1-6.1l18.1-21.8a4,4,0,0,0-2.4-6.6L251.33,86a4,4,0,0,1-3.1-5.4l9.6-26.7a4.09,4.09,0,0,0-4.5-5.4l-28,4.8a4.12,4.12,0,0,1-4.8-4l-.1-28.4a4.06,4.06,0,0,0-6.1-3.5l-24.7,14a4.2,4.2,0,0,1-5.9-2.1l-9.8-26.6a4,4,0,0,0-6.9-1.2l-18.4,21.6a4.08,4.08,0,0,1-6.2,0L124,1.45a4,4,0,0,0-6.9,1.2l-9.8,26.6a4.07,4.07,0,0,1-5.9,2.1l-24.6-14.1a4.09,4.09,0,0,0-6.1,3.5l-.1,28.4a4.12,4.12,0,0,1-4.8,4l-28-4.8a4.06,4.06,0,0,0-4.5,5.4l9.6,26.7a4,4,0,0,1-3.1,5.4L11.93,91a4.05,4.05,0,0,0-2.4,6.6l18.09,21.8a4,4,0,0,1-1.09,6.1L2,139.75a4,4,0,0,0,0,7l24.4,14.5a4.05,4.05,0,0,1,1.1,6.1l-18.1,21.9a4,4,0,0,0,2.4,6.6l27.9,5.1a4,4,0,0,1,3.1,5.4l-9.6,26.7a4.09,4.09,0,0,0,4.5,5.4l28-4.8a4.12,4.12,0,0,1,4.8,4l.1,28.4a4.06,4.06,0,0,0,6.1,3.5l24.7-14.1a4.2,4.2,0,0,1,5.9,2.1l9.8,26.6a4,4,0,0,0,6.9,1.2l18.4-21.6a4.08,4.08,0,0,1,6.2,0l18.4,21.6a4,4,0,0,0,6.9-1.2l9.8-26.6a4.07,4.07,0,0,1,5.9-2.1l24.7,14.1a4.09,4.09,0,0,0,6.1-3.5l.1-28.4a4.12,4.12,0,0,1,4.8-4l28,4.8a4.06,4.06,0,0,0,4.5-5.4l-9.61-26.7a4.06,4.06,0,0,1,3.11-5.4l27.89-5.1a4.05,4.05,0,0,0,2.4-6.6l-18-21.9a4,4,0,0,1,1.1-6.1l24.5-14.3A4.21,4.21,0,0,0,289.23,139.85Zm-143.7,109.5a105.9,105.9,0,1,1,105.9-105.9A105.88,105.88,0,0,1,145.53,249.35Z"/><circle class="cls-2" cx="145.53" cy="143.45" r="92"/></g></g></svg>