<svg xmlns="http://www.w3.org/2000/svg" xmlns:xlink="http://www.w3.org/1999/xlink" version="1.1" x="0px" y="0px" viewBox="0 0 1024 1280" style="enable-background:new 0 0 1024 1024;" xml:space="preserve"><path d="M867.1,260.9c-51.4-72-123.5-127.3-206.5-157.8C575.4,71.9,480,68.8,392.7,93.7  c-84,23.9-160.5,73.8-216,141.4C119.6,304.6,85,390.1,78.2,479.9c-6.8,89.4,14.9,180.3,61.3,257c45.1,74.4,112.7,135.1,192,171  c83.8,37.9,178,48.5,268.3,30.3c86-17.4,166.1-62.1,226.7-125.5c60.8-63.7,102-145.8,115.2-232.9c3.4-22.4,5.3-45,5.3-67.6v-0.1  C946.8,422.6,919.1,333.8,867.1,260.9z M453.8,375.2v318.6c0.4,8.1-7.2,15-15,15c-0.3,0-0.6,0-0.9,0h-99.1c-8.1,0-15-6.9-15-15  c0-0.2,0-0.4,0-0.6c-0.5-14.7,0-29.5,0-44.1V330.4c0-8.1,6.9-15,15-15h100c8.1,0,15,6.9,15,15v0.6  C454.3,345.7,453.8,360.5,453.8,375.2z M700.2,375.2v318.6c0.4,8.1-7.2,15-15,15c-0.3,0-0.6,0-0.9,0h-99.1c-8.1,0-15-6.9-15-15v-0.6  c-0.5-14.7,0-29.5,0-44.1V330.4c0-8.1,6.9-15,15-15h100c8.1,0,15,6.9,15,15c0,0.2,0,0.4,0,0.6C700.7,345.7,700.2,360.5,700.2,375.2z  "/></svg>