<svg version="1.1" xmlns="http://www.w3.org/2000/svg" xmlns:xlink="http://www.w3.org/1999/xlink" x="0px" y="0px"
	 width="82.334px" height="82.334px" viewBox="0 0 82.334 82.334" style="enable-background:new 0 0 82.334 82.334;"
	 xml:space="preserve">
<g>
	<path d="M82.334,41.167C82.334,18.467,63.867,0,41.167,0c-0.47,0-0.934,0.02-1.401,0.036v-0.01c-0.135,0-0.266,0.017-0.401,0.02
		c-0.21,0.01-0.421,0.021-0.631,0.033c-0.503,0.024-1.004,0.055-1.497,0.114C16.375,2.178,0,19.794,0,41.167
		c0,22.7,18.467,41.167,41.167,41.167S82.334,63.867,82.334,41.167z M46.359,22.072c0,2.868-2.325,5.193-5.192,5.193
		c-2.868,0-5.193-2.325-5.193-5.193c0-2.868,2.325-5.193,5.193-5.193C44.034,16.879,46.359,19.205,46.359,22.072z M58.712,60.85
		c0,10.053-8.497,18.231-18.941,18.231v0.034C19.472,78.378,3.183,61.645,3.183,41.167c0-16.67,10.8-30.857,25.768-35.957
		c-5.579,3.616-9.291,9.911-9.291,17.072c0,11.177,9.017,20.271,20.112,20.305v0.032C50.216,42.619,58.712,50.797,58.712,60.85z
		 M41.167,66.688c-2.868,0-5.193-2.326-5.193-5.193c0-2.868,2.325-5.193,5.193-5.193c2.867,0,5.192,2.325,5.192,5.193
		C46.359,64.361,44.034,66.688,41.167,66.688z"/>
</g>
</svg>
